<mxfile host="app.diagrams.net" modified="2022-01-08T14:24:25.529Z" agent="5.0 (Macintosh)" etag="KOlsdMkYCET9T1_RPD1r" version="16.2.4" type="github">
  <diagram id="3_0tROmsDldKhigKICPy" name="Page-1">
    <mxGraphModel dx="728" dy="471" grid="1" gridSize="10" guides="1" tooltips="1" connect="1" arrows="1" fold="1" page="1" pageScale="1" pageWidth="827" pageHeight="1169" math="0" shadow="0">
      <root>
        <mxCell id="0" />
        <mxCell id="1" parent="0" />
        <mxCell id="clI5AdR-7hVPnLY4uLkg-4" value="Avnet build scripts" style="rounded=1;whiteSpace=wrap;html=1;" vertex="1" parent="1">
          <mxGeometry x="180" y="180" width="120" height="60" as="geometry" />
        </mxCell>
        <mxCell id="clI5AdR-7hVPnLY4uLkg-5" value="PYNQ build scripts" style="rounded=1;whiteSpace=wrap;html=1;" vertex="1" parent="1">
          <mxGeometry x="380" y="180" width="120" height="60" as="geometry" />
        </mxCell>
        <mxCell id="clI5AdR-7hVPnLY4uLkg-7" value="Vivado" style="rounded=1;whiteSpace=wrap;html=1;" vertex="1" parent="1">
          <mxGeometry x="160" y="280" width="160" height="40" as="geometry" />
        </mxCell>
        <mxCell id="clI5AdR-7hVPnLY4uLkg-8" value="PetaLinux" style="rounded=1;whiteSpace=wrap;html=1;" vertex="1" parent="1">
          <mxGeometry x="360" y="280" width="160" height="40" as="geometry" />
        </mxCell>
        <mxCell id="clI5AdR-7hVPnLY4uLkg-9" value="Vitis" style="rounded=1;whiteSpace=wrap;html=1;" vertex="1" parent="1">
          <mxGeometry x="560" y="280" width="160" height="40" as="geometry" />
        </mxCell>
        <mxCell id="clI5AdR-7hVPnLY4uLkg-10" value="" style="curved=1;endArrow=classic;html=1;rounded=0;" edge="1" parent="1" source="clI5AdR-7hVPnLY4uLkg-4" target="clI5AdR-7hVPnLY4uLkg-7">
          <mxGeometry width="50" height="50" relative="1" as="geometry">
            <mxPoint x="120" y="300" as="sourcePoint" />
            <mxPoint x="170" y="250" as="targetPoint" />
            <Array as="points">
              <mxPoint x="200" y="260" />
            </Array>
          </mxGeometry>
        </mxCell>
        <mxCell id="clI5AdR-7hVPnLY4uLkg-11" value="" style="curved=1;endArrow=classic;html=1;rounded=0;" edge="1" parent="1" source="clI5AdR-7hVPnLY4uLkg-4" target="clI5AdR-7hVPnLY4uLkg-8">
          <mxGeometry width="50" height="50" relative="1" as="geometry">
            <mxPoint x="120" y="300" as="sourcePoint" />
            <mxPoint x="170" y="250" as="targetPoint" />
            <Array as="points">
              <mxPoint x="320" y="280" />
              <mxPoint x="400" y="250" />
            </Array>
          </mxGeometry>
        </mxCell>
        <mxCell id="clI5AdR-7hVPnLY4uLkg-12" value="" style="curved=1;endArrow=classic;html=1;rounded=0;" edge="1" parent="1" source="clI5AdR-7hVPnLY4uLkg-5" target="clI5AdR-7hVPnLY4uLkg-8">
          <mxGeometry width="50" height="50" relative="1" as="geometry">
            <mxPoint x="420" y="310" as="sourcePoint" />
            <mxPoint x="470" y="260" as="targetPoint" />
            <Array as="points">
              <mxPoint x="480" y="260" />
            </Array>
          </mxGeometry>
        </mxCell>
        <mxCell id="clI5AdR-7hVPnLY4uLkg-13" value="ROS2-HAWG tools" style="rounded=1;whiteSpace=wrap;html=1;" vertex="1" parent="1">
          <mxGeometry x="580" y="180" width="120" height="60" as="geometry" />
        </mxCell>
        <mxCell id="clI5AdR-7hVPnLY4uLkg-15" value="" style="html=1;shadow=0;dashed=0;align=center;verticalAlign=middle;shape=mxgraph.arrows2.arrow;dy=0.6;dx=40;notch=0;" vertex="1" parent="1">
          <mxGeometry x="310" y="193.75" width="60" height="32.5" as="geometry" />
        </mxCell>
        <mxCell id="clI5AdR-7hVPnLY4uLkg-16" value="" style="html=1;shadow=0;dashed=0;align=center;verticalAlign=middle;shape=mxgraph.arrows2.arrow;dy=0.6;dx=40;notch=0;" vertex="1" parent="1">
          <mxGeometry x="510" y="193.75" width="60" height="32.5" as="geometry" />
        </mxCell>
        <mxCell id="clI5AdR-7hVPnLY4uLkg-17" value="" style="curved=1;endArrow=classic;html=1;rounded=0;" edge="1" parent="1" source="clI5AdR-7hVPnLY4uLkg-13" target="clI5AdR-7hVPnLY4uLkg-9">
          <mxGeometry width="50" height="50" relative="1" as="geometry">
            <mxPoint x="420" y="310" as="sourcePoint" />
            <mxPoint x="470" y="260" as="targetPoint" />
            <Array as="points">
              <mxPoint x="680" y="260" />
            </Array>
          </mxGeometry>
        </mxCell>
      </root>
    </mxGraphModel>
  </diagram>
</mxfile>
